<svg id="Layer_1" data-name="Layer 1" xmlns="http://www.w3.org/2000/svg" xmlns:xlink="http://www.w3.org/1999/xlink" viewBox="0 0 2000 1114.63"><defs><style>.cls-1,.cls-2{fill:#050505;}.cls-2{font-size:174.08px;font-family:BlackChancery;}.cls-3{fill:url(#linear-gradient);}.cls-4{fill:url(#linear-gradient-2);}.cls-5{fill:url(#linear-gradient-3);}.cls-6{fill:url(#linear-gradient-4);}</style><linearGradient id="linear-gradient" x1="86.49" y1="555.64" x2="903.48" y2="555.64" gradientUnits="userSpaceOnUse"><stop offset="0" stop-color="#09a9b0"/><stop offset="1" stop-color="#1280d9"/></linearGradient><linearGradient id="linear-gradient-2" x1="1588.06" y1="158.54" x2="1759.02" y2="158.54" xlink:href="#linear-gradient"/><linearGradient id="linear-gradient-3" x1="1636.48" y1="158.54" x2="1651.96" y2="158.54" xlink:href="#linear-gradient"/><linearGradient id="linear-gradient-4" x1="1695.12" y1="158.54" x2="1710.6" y2="158.54" xlink:href="#linear-gradient"/></defs><path class="cls-1" d="M940.86,578.12a17.18,17.18,0,0,1,.21,1.79,5,5,0,0,0,.44,1.94,50.57,50.57,0,0,0-6.82-7.1,68,68,0,0,0-8-5.82,73.3,73.3,0,0,0-22.33-9.35,82.4,82.4,0,0,0-23.92-2.06q-5.84.33-11.78,1.07a86.92,86.92,0,0,0-11.52,2.24q-6,1.57-11.44,3.44t-11.12,4Q824,571.9,813,574.94a55.11,55.11,0,0,1-22.61,1.41,44.44,44.44,0,0,1-18.26-7.12,27.68,27.68,0,0,1-11.47-15.82c-.75-2.69-1.4-5.19-1.93-7.51s-1.17-4.83-1.93-7.51c-.29-1.3-.53-2.5-.72-3.61s-.43-2.31-.73-3.6c.12.52,0,.23-.3-.85s-.3-1.19,0-.32a.51.51,0,0,0,.18.78,23.31,23.31,0,0,0,7.5,11.33,37.24,37.24,0,0,0,18.35,9.35,60.21,60.21,0,0,0,20.6.47,98.68,98.68,0,0,0,22.59-6.41A171.74,171.74,0,0,1,846.62,538a126.54,126.54,0,0,1,23.08-4.28,98.83,98.83,0,0,1,23.61.7,78.19,78.19,0,0,1,23.3,7.8,60.66,60.66,0,0,1,18.92,15.34,6.15,6.15,0,0,1,.59,1.7c.18.77.33,1.42.44,1.94.3,1.29.65,2.67,1.06,4.14s.83,2.9,1.29,4.29a33.08,33.08,0,0,0,.9,4.38C940.21,575.45,940.57,576.83,940.86,578.12Z"/><path class="cls-1" d="M1713.73,712q-14.18,0-17.5-23.33V454.49q0-27.5-10.41-47.49t-36.25-20q-26.67,0-56.66,27.5t-34.17,43.33q33.32-28.32,49.17-28.33,11.65,0,11.66,15.79V690.47q0,24.93,13.34,43.22t35,18.28a74.52,74.52,0,0,0,46.25-15.51q20.4-15.5,40.41-49.48-4.17,3.33-17.5,14.16T1713.73,712Z"/><path class="cls-1" d="M1450.2,280.43l1.89-88.42h-81.66v88.42H1068V258.68q0-12.51,42.5-15.42T1179.62,192h-75q-52.48,0-85,42.15a150.29,150.29,0,0,0-24.25,46.27H779.06l27.44,48.41,180.76.25c-.08,2.41-.13,4.84-.13,7.29V752q34.15,0,57.5-25.1T1068,669.93V567.82q47.49,5,86.24,94.59T1233,752q27.49,0,55.41-25.27t39.58-51.39q-16.68,12.15-27.91,16.9T1280.44,697q-40,0-77.49-86.89t-95.83-97.76q38.33-35.09,97.08-70.18t114.57-51.81h-76.66q-38.34,0-80,37.5T1068,523.65V329.09h302.47V658.92q0,52.33,9.58,72.7T1414.59,752q32.51,0,64.17-28.51t55-72.31q-25,22.9-42.91,34t-29.58,11q-14.17,0-14.17-18.28V426.07l2.07-97h338.5V280.43Z"/><text class="cls-2" transform="translate(1787.66 684.55)">ai</text><path class="cls-3" d="M887.65,313.38c-2.85-2.84-5.83-5.83-8.93-8.93-2.6-2.59-5.44-5.31-8.55-8.16s-6-5.56-8.54-8.16c-.53-.51-1.83-1.81-3.89-3.88s-3.8-3.82-3.8-3.82l-262.35-.28,4.87,4.87a24.27,24.27,0,0,0,3.89,3.11l17.09,17.09c3.1,2.6,6.09,5.32,8.93,8.16l8.94,8.94,3.1,3.1c2.08,2.08,3.38,3.11,3.89,3.11h21.75V523.9c-1-.95-1.55-1.59-1.55-1.92a88,88,0,0,1-20.59,55.16,141.28,141.28,0,0,1-46.22,37.29,163.8,163.8,0,0,1-31.85,12q-16.32,4.28-33.41,7.38-17.88,3.12-35.74,5A329.31,329.31,0,0,1,459,640.84a231.61,231.61,0,0,1-52.06-4.27,164.74,164.74,0,0,1-48.16-17.48,85,85,0,0,1-10.88-30.3q-4.67-28.72,6.21-53.6t36.52-37.3a103.92,103.92,0,0,1,26-8.93q13.59-2.71,26.81-5,12.42-2.32,26.41-4.27a149.38,149.38,0,0,0,26.81-6.22,126.68,126.68,0,0,0,24.08-10.87,70.66,70.66,0,0,0,19.81-17.48q15.53-20.2,16.31-47t-14-47.78a22.9,22.9,0,0,0-4.27-5.82,52.14,52.14,0,0,1-5.05-5.83c-.52-.51-3.38-3.36-8.55-8.55s-10.62-10.48-16.31-15.92-10.88-10.22-15.54-14.37-6.74-6-6.22-5.44L484.59,292a46.37,46.37,0,0,0-7-5.44,91.8,91.8,0,0,0-33.41-14,85.48,85.48,0,0,0-36.12,1.56,70.58,70.58,0,0,0-31.47,17.09l11.66,11.65,8.54,8.55c2.59,2.6,4.14,3.88,4.66,3.88,0,.53,1.29,2.08,3.89,4.67s5.44,5.31,8.55,8.15,7.24,6.61,12.43,11.27a70.56,70.56,0,0,1,36.12-18.65,84,84,0,0,1,40.79,2.33,75.92,75.92,0,0,1,3.11,34.19,94,94,0,0,1-10.88,33.4,61.24,61.24,0,0,1-17.87,20.2,103.21,103.21,0,0,1-22.92,12.43,133.59,133.59,0,0,1-25.64,7q-13.59,2.32-26.8,4.66a340.79,340.79,0,0,0-52.44,12q-26,8.16-41.56,33a86.77,86.77,0,0,0-10.88,53.21q3.12,28.38,19.42,50.11,2.34,3.12,4.66,5.83c1.56,1.82,3.11,3.5,4.67,5.05a6.72,6.72,0,0,1,1.16,1.55,3.49,3.49,0,0,0,1.51,1.32c-.55-.15,1.4,2,5.87,6.45q7.75,7.79,15.93,15.54t16.7,15.54q7.75,7,15.15,14A89.87,89.87,0,0,0,399.13,661a128.09,128.09,0,0,0,26.42,14,244.42,244.42,0,0,0,29.52,9.32A210.31,210.31,0,0,0,491.2,689a290.62,290.62,0,0,0,36.9-.78q17.86-1.54,35-3.88t35-6.22a231.9,231.9,0,0,0,42-13.2,127.81,127.81,0,0,0,25-14.12,302.24,302.24,0,0,1-2.47,35.87,186.35,186.35,0,0,1-2.72,18.65,84.76,84.76,0,0,1-6.22,19.42,54.1,54.1,0,0,1-10.87,15.93c-.4.4-.83.76-1.25,1.13-57,2.28-69.28,64.11-69.28,64.11l54.7,52.14c13.6-78.18,92.31-63.25,92.31-63.25s80,108-151.81,145.87S197.92,817.07,197.92,817.07c-154.49-210-10.29-338.78,6.56-531.3s-118-156.13-118-156.13c223.35,9.55,25.74,337.65,22.47,499C105.77,786.12,229.77,974.16,541.62,984s214.3-170.38,214.3-170.38l-51.15-47.27a116.15,116.15,0,0,0,4.34-12.07,213.48,213.48,0,0,0,4.66-36.51q.76-18.64,0-36.52V328.53l189.71.56c-.52,0-1.84-1.72-4.18-4"/><path class="cls-4" d="M1748.76,139.07l-1.67-6.91c-10-27.21-33.66-28.57-40.45-28.29s-8.32-2.37-8.32-2.37c-7.39-4.29-17-5-20.34-5.43s-1-5.89-1-5.89c5.37-5.27,5.14-9.11,5.14-9.11C1681.08,69.71,1671.63,71,1671.63,71c-13,2.94-10,15.2-6.37,17.14s2.47,7.39,2.47,7.39c-16.51,1.93-21.74,6-21.74,6a18.34,18.34,0,0,1-5.85,2.07c-28.25-.43-39.71,23.36-40.21,30.07s-2.36,6-2.36,6-7.46,2.17-9.17,15.63,3.37,23,7.38,23.61a5.3,5.3,0,0,1,4.69,3.71c5.68,21.28,28,27.18,28,27.18L1612,246.14s65.33-31.56,70.4-34,7.19-1.66,7.19-1.66c43.57,5.94,55.15-20.54,56.2-24.62s2.09-5.26,2.09-5.26,11.24-3.69,11.17-22S1748.76,139.07,1748.76,139.07Zm-13.28,29.74a16.83,16.83,0,0,1-16.83,16.82h-90.22a16.82,16.82,0,0,1-16.82-16.82V148.28a16.82,16.82,0,0,1,16.82-16.83h90.22a16.83,16.83,0,0,1,16.83,16.83Z"/><circle class="cls-5" cx="1644.22" cy="158.54" r="7.74"/><circle class="cls-6" cx="1702.86" cy="158.54" r="7.74"/></svg>